<?xml version="1.0" encoding="UTF-8" standalone="no" ?>
<svg xmlns="http://www.w3.org/2000/svg" version="1.1" width="32" height="32" viewBox="0 0 32 32" xml:space="preserve">
<desc>Created with Fabric.js 5.3.0</desc>
<defs>
</defs>
<g transform="matrix(0.0526873481 0 0 0.0526873485 16.0582072177 16.0582072177)" id="PI8piCjAOYBFaparFzVUy"  >
<g style=""   >
		<g transform="matrix(5.7239643963 0.702814455 -0.7028144492 5.7239643489 0 0)" id="nIGqcu5P2c4NYv-ElUv3R"  >
<path style="stroke: rgb(56,214,238); stroke-width: 0; stroke-dasharray: none; stroke-linecap: butt; stroke-dashoffset: 0; stroke-linejoin: miter; stroke-miterlimit: 4; fill: rgb(178,188,198); fill-rule: nonzero; opacity: 1;"  transform=" translate(0, 0)" d="M -47.25201 -27.20468 C -47.25201 -38.27651 -38.27651 -47.25201 -27.20468 -47.25201 L 27.20468 -47.25201 L 27.20468 -47.25201 C 38.27651 -47.25201 47.25201 -38.27651 47.25201 -27.20468 L 47.25201 27.20468 L 47.25201 27.20468 C 47.25201 38.27651 38.27651 47.25201 27.20468 47.25201 L -27.20468 47.25201 L -27.20468 47.25201 C -38.27651 47.25201 -47.25201 38.27651 -47.25201 27.20468 z" stroke-linecap="round" />
</g>
		<g transform="matrix(3.9076190211 0 0 3.907618722 1.3006993007 -1.1602288649)" id="lClSA7NcVO_Mj2_tG4V9S"  >
<path style="stroke: rgb(227,226,200); stroke-width: 0; stroke-dasharray: none; stroke-linecap: butt; stroke-dashoffset: 0; stroke-linejoin: miter; stroke-miterlimit: 4; fill: rgb(41,127,184); fill-rule: nonzero; opacity: 1;"  transform=" translate(0, -0.000005)" d="M -63.3378 -36.46585 C -63.3378 -51.30682 -51.30682 -63.3378 -36.46585 -63.3378 L 36.46585 -63.3378 L 36.46585 -63.3378 C 51.30682 -63.3378 63.3378 -51.30682 63.3378 -36.46585 L 63.3378 36.46585999999999 L 63.3378 36.46585999999999 C 63.3378 51.30682999999999 51.30682 63.33780999999999 36.46585 63.33780999999999 L -36.46585 63.33780999999999 L -36.46585 63.33780999999999 C -51.30682 63.33780999999999 -63.3378 51.30682999999999 -63.3378 36.46585999999999 z" stroke-linecap="round" />
</g>
		<g transform="matrix(-5.664 0 0 -5.664 6.5314026584 1.5396941921)" id="fXjJ5hiHftTUoZ6C5JoEp"  >
<path style="stroke: rgb(138,247,68); stroke-width: 0; stroke-dasharray: none; stroke-linecap: butt; stroke-dashoffset: 0; stroke-linejoin: miter; stroke-miterlimit: 4; fill: rgb(255,255,255); fill-rule: nonzero; opacity: 1;"  transform=" translate(0, 0)" d="M 0 -28.24859 C 15.59322 -28.24859 28.24859 -15.59322 28.24859 0 C 28.24859 15.59322 15.59322 28.24859 0 28.24859 C -15.59322 28.24859 -28.24859 15.59322 -28.24859 0 C -28.24859 -15.59322 -15.59322 -28.24859 0 -28.24859 z" stroke-linecap="round" />
</g>
</g>
</g>
</svg>